<svg width="19" height="25" viewBox="0 0 19 25" fill="none" xmlns="http://www.w3.org/2000/svg">
<path d="M9.5 25L2.21437 16.117C2.11314 15.9836 2.01295 15.8494 1.91383 15.7143C0.669311 14.0194 -0.00300648 11.9493 1.0107e-05 9.82143C1.0107e-05 7.21662 1.0009 4.7185 2.78249 2.87663C4.56409 1.03475 6.98045 0 9.5 0C12.0196 0 14.4359 1.03475 16.2175 2.87663C17.9991 4.7185 19 7.21662 19 9.82143C19.003 11.9483 18.331 14.0175 17.087 15.7116L17.0862 15.7143C17.0862 15.7143 16.8271 16.0661 16.7882 16.1134L9.5 25ZM3.29219 14.6384C3.29392 14.6384 3.49428 14.9134 3.54005 14.9723L9.5 22.2393L15.4677 14.9625C15.5057 14.9134 15.7078 14.6366 15.7087 14.6357C16.7253 13.251 17.2747 11.5598 17.2727 9.82143C17.2727 7.69022 16.4538 5.64631 14.9961 4.13932C13.5385 2.63233 11.5615 1.78571 9.5 1.78571C7.43855 1.78571 5.46153 2.63233 4.00386 4.13932C2.54619 5.64631 1.72728 7.69022 1.72728 9.82143C1.72547 11.5609 2.27463 13.253 3.29219 14.6384Z" fill="white"/>
<path d="M9.50006 14.2858C8.64601 14.2858 7.81113 14.0239 7.10101 13.5334C6.39089 13.0428 5.83742 12.3456 5.51059 11.5299C5.18376 10.7141 5.09824 9.81651 5.26486 8.95053C5.43148 8.08454 5.84274 7.28908 6.44665 6.66474C7.05056 6.0404 7.81999 5.61522 8.65763 5.44296C9.49527 5.2707 10.3635 5.35911 11.1526 5.697C11.9416 6.03489 12.616 6.60709 13.0905 7.34124C13.565 8.07539 13.8182 8.93851 13.8182 9.82147C13.8169 11.005 13.3615 12.1397 12.552 12.9766C11.7424 13.8135 10.6449 14.2843 9.50006 14.2858ZM9.50006 7.14289C8.98763 7.14289 8.48671 7.29999 8.06063 7.59432C7.63456 7.88864 7.30248 8.30698 7.10638 8.79642C6.91028 9.28587 6.85897 9.82444 6.95894 10.344C7.05891 10.8636 7.30567 11.3409 7.66802 11.7155C8.03036 12.0901 8.49202 12.3452 8.9946 12.4486C9.49719 12.5519 10.0181 12.4989 10.4916 12.2961C10.965 12.0934 11.3696 11.7501 11.6543 11.3096C11.939 10.8691 12.091 10.3512 12.091 9.82147C12.0903 9.11128 11.8171 8.43039 11.3314 7.92821C10.8456 7.42604 10.187 7.1436 9.50006 7.14289Z" fill="white"/>
</svg>
