<svg width="21" height="19" viewBox="0 0 21 19" fill="none" xmlns="http://www.w3.org/2000/svg">
<path d="M12.5898 1.29293C12.6182 1.19868 12.6673 1.11032 12.7342 1.0329C12.8012 0.955485 12.8847 0.890523 12.9799 0.84173C13.0752 0.792936 13.1804 0.761267 13.2895 0.748533C13.3985 0.735798 13.5094 0.742247 13.6156 0.767512C15.1681 1.12671 16.5845 1.84642 17.719 2.85249C18.8535 3.85857 19.6651 5.11466 20.0702 6.49138C20.0986 6.58561 20.1059 6.6839 20.0916 6.78062C20.0772 6.87735 20.0415 6.97062 19.9865 7.0551C19.9314 7.13959 19.8582 7.21363 19.7709 7.273C19.6836 7.33237 19.584 7.3759 19.4777 7.40111C19.4069 7.41758 19.3341 7.42601 19.261 7.42617C19.0764 7.42617 18.8971 7.37211 18.7507 7.27239C18.6044 7.17268 18.4993 7.03289 18.4518 6.87476C18.1215 5.7509 17.4591 4.72549 16.533 3.90424C15.6069 3.08299 14.4506 2.49561 13.1833 2.20266C13.0769 2.17755 12.9772 2.13409 12.8898 2.07476C12.8024 2.01543 12.729 1.94141 12.6739 1.85691C12.6187 1.77242 12.5829 1.67912 12.5685 1.58234C12.5541 1.48557 12.5613 1.38722 12.5898 1.29293ZM12.3459 5.1732C13.7894 5.51481 14.7169 6.33728 15.1021 7.6174C15.1496 7.77553 15.2547 7.91531 15.401 8.01503C15.5473 8.11474 15.7267 8.1688 15.9113 8.16881C15.9844 8.16864 16.0572 8.16022 16.1279 8.14374C16.2342 8.11853 16.3339 8.075 16.4212 8.01563C16.5085 7.95626 16.5817 7.88222 16.6367 7.79774C16.6918 7.71326 16.7275 7.61999 16.7418 7.52326C16.7562 7.42653 16.7489 7.32825 16.7204 7.23401C16.1845 5.4554 14.7839 4.21334 12.7782 3.73805C12.6719 3.71288 12.5611 3.70651 12.4521 3.71932C12.3431 3.73212 12.2379 3.76385 12.1427 3.81268C12.0475 3.86151 11.9641 3.9265 11.8972 4.00392C11.8303 4.08135 11.7813 4.1697 11.7529 4.26393C11.7245 4.35817 11.7173 4.45643 11.7317 4.55313C11.7462 4.64982 11.782 4.74305 11.837 4.82748C11.8921 4.91191 11.9654 4.9859 12.0527 5.04522C12.14 5.10454 12.2396 5.14803 12.3459 5.1732ZM20.9233 14.0245C20.7366 15.2824 20.04 16.437 18.9636 17.2727C17.8872 18.1083 16.5045 18.568 15.0738 18.5657C6.76229 18.5657 9.47205e-06 12.5689 9.47205e-06 5.19826C-0.00255515 3.92955 0.515751 2.7034 1.45812 1.74881C2.40049 0.794217 3.70248 0.176473 5.12092 0.0109517C5.4796 -0.0278873 5.84284 0.0371871 6.15639 0.196461C6.46994 0.355734 6.717 0.600664 6.86069 0.894688L9.07151 5.2716V5.28274C9.18151 5.50781 9.22695 5.75353 9.20375 5.99797C9.18055 6.2424 9.08944 6.47794 8.93857 6.68353C8.91973 6.7086 8.89984 6.7318 8.8789 6.75501L6.69948 9.04604C7.48353 10.4589 9.15002 11.9238 10.7642 12.6209L13.3121 10.6984C13.3371 10.6798 13.3633 10.6624 13.3906 10.6464C13.6222 10.5094 13.8887 10.4258 14.166 10.4031C14.4433 10.3804 14.7225 10.4194 14.9786 10.5165L14.9922 10.522L19.9236 12.4817C20.2557 12.6086 20.5326 12.8275 20.7128 13.1056C20.893 13.3837 20.9669 13.7061 20.9233 14.0245ZM19.261 13.8388H19.2495L14.3295 11.8848L11.7806 13.8073C11.7559 13.8258 11.73 13.8432 11.7031 13.8593C11.4621 14.0018 11.1835 14.0866 10.8945 14.1051C10.6056 14.1236 10.3161 14.0754 10.0544 13.9651C8.09381 13.125 6.13945 11.4048 5.19105 9.68471C5.06547 9.45436 5.00911 9.19915 5.02745 8.9438C5.04579 8.68846 5.1382 8.44165 5.29573 8.22729C5.31349 8.20212 5.33344 8.17822 5.3554 8.15581L7.53691 5.86199L5.33865 1.49901C5.33824 1.4953 5.33824 1.49157 5.33865 1.48787C4.32353 1.6053 3.39149 2.04685 2.71708 2.72985C2.04266 3.41284 1.67213 4.29043 1.67488 5.19826C1.67876 8.34855 3.09167 11.3688 5.60362 13.5964C8.11557 15.824 11.5214 17.077 15.0738 17.0804C16.0969 17.0835 17.0863 16.7561 17.8569 16.1593C18.6275 15.5626 19.1266 14.7373 19.261 13.8379V13.8388Z" fill="white"/>
</svg>
